ffmpeg version N-55863-g9f38fac053-static https://johnvansickle.com/ffmpeg/  Copyright (c) 2000-2021 the FFmpeg developers
  built with gcc 8 (Debian 8.3.0-6)
  configuration: --enable-gpl --enable-version3 --enable-static --disable-debug --disable-ffplay --disable-indev=sndio --disable-outdev=sndio --cc=gcc --enable-fontconfig --enable-frei0r --enable-gnutls --enable-gmp --enable-libgme --enable-gray --enable-libaom --enable-libfribidi --enable-libass --enable-libvmaf --enable-libfreetype --enable-libmp3lame --enable-libopencore-amrnb --enable-libopencore-amrwb --enable-libopenjpeg --enable-librubberband --enable-libsoxr --enable-libspeex --enable-libsrt --enable-libvorbis --enable-libopus --enable-libtheora --enable-libvidstab --enable-libvo-amrwbenc --enable-libvpx --enable-libwebp --enable-libx264 --enable-libx265 --enable-libxml2 --enable-libdav1d --enable-libxvid --enable-libzvbi --enable-libzimg
  libavutil      56. 64.100 / 56. 64.100
  libavcodec     58.119.100 / 58.119.100
  libavformat    58. 65.101 / 58. 65.101
  libavdevice    58. 11.103 / 58. 11.103
  libavfilter     7.100.100 /  7.100.100
  libswscale      5.  8.100 /  5.  8.100
  libswresample   3.  8.100 /  3.  8.100
  libpostproc    55.  8.100 / 55.  8.100
Input #0, mov,mp4,m4a,3gp,3g2,mj2, from '/home/yiaapc5/public_html/f_data/data_userfiles/user_uploads/1134370236/v/1612723189.mp4':
  Metadata:
    major_brand     : mp42
    minor_version   : 0
    compatible_brands: isommp42
    encoder         : Google
  Duration: 00:01:49.16, start: 0.000000, bitrate: 3042 kb/s
    Stream #0:0(und): Video: h264 (High) (avc1 / 0x31637661), yuv420p(tv, bt709), 1280x720 [SAR 1:1 DAR 16:9], 2912 kb/s, 29.97 fps, 29.97 tbr, 30k tbn, 59.94 tbc (default)
    Metadata:
      handler_name    : ISO Media file produced by Google Inc.
      vendor_id       : [0][0][0][0]
    Stream #0:1(eng): Audio: aac (LC) (mp4a / 0x6134706D), 44100 Hz, stereo, fltp, 127 kb/s (default)
    Metadata:
      handler_name    : ISO Media file produced by Google Inc.
      vendor_id       : [0][0][0][0]
Codec AVOption rc_eq (Set rate control equation. When computing the expression, besides the standard functions defined in the section 'Expression Evaluation', the following functions are available: bits2qp(bits), qp2bits(qp). Also the following constants are available: iTex pTex tex mv fCode iCount mcVar var isI isP isB avgQP qComp avgIITex avgPITex avgPPTex avgBPTex avgTex.) specified for output file #0 (/home/yiaapc5/public_html/f_data/data_userfiles/user_media/1134370236/v/be30cc2f6721ea8b618a46029552f3bf.mob.nomob.mp4) has not been used for any stream. The most likely reason is either wrong type (e.g. a video option with no video streams) or that it is a private option of some encoder which was not actually used for any stream.
Stream mapping:
  Stream #0:0 -> #0:0 (h264 (native) -> h264 (libx264))
  Stream #0:1 -> #0:1 (aac (native) -> aac (native))
Press [q] to stop, [?] for help
[libx264 @ 0x5de9e00] Application has requested 32 threads. Using a thread count greater than 16 is not recommended.
[libx264 @ 0x5de9e00] using SAR=136/135
[libx264 @ 0x5de9e00] frame MB size (30x17) > level limit (396)
[libx264 @ 0x5de9e00] VBV bitrate (10000) > level limit (768)
[libx264 @ 0x5de9e00] VBV buffer (10000) > level limit (2000)
[libx264 @ 0x5de9e00] MB rate (15284) > level limit (11880)
[libx264 @ 0x5de9e00] using cpu capabilities: MMX2 SSE2Fast SSSE3 SSE4.2 AVX
[libx264 @ 0x5de9e00] profile Constrained Baseline, level 1.3, 4:2:0, 8-bit
[libx264 @ 0x5de9e00] 264 - core 161 r3040 35417dc - H.264/MPEG-4 AVC codec - Copyleft 2003-2021 - http://www.videolan.org/x264.html - options: cabac=0 ref=1 deblock=1:0:0 analyse=0x1:0 me=hex subme=1 psy=1 psy_rd=1.00:0.00 mixed_ref=0 me_range=16 chroma_me=1 trellis=0 8x8dct=0 cqm=0 deadzone=21,11 fast_pskip=1 chroma_qp_offset=0 threads=32 lookahead_threads=2 sliced_threads=0 nr=0 decimate=1 interlaced=0 bluray_compat=0 constrained_intra=0 bframes=0 weightp=0 keyint=300 keyint_min=25 scenecut=40 intra_refresh=0 rc_lookahead=30 rc=abr mbtree=1 bitrate=1000 ratetol=1.0 qcomp=0.60 qpmin=10 qpmax=51 qpstep=4 vbv_maxrate=10000 vbv_bufsize=10000 nal_hrd=none filler=0 ip_ratio=1.41 aq=1:1.00
Output #0, mp4, to '/home/yiaapc5/public_html/f_data/data_userfiles/user_media/1134370236/v/be30cc2f6721ea8b618a46029552f3bf.mob.nomob.mp4':
  Metadata:
    major_brand     : mp42
    minor_version   : 0
    compatible_brands: isommp42
    encoder         : Lavf58.65.101
    Stream #0:0(und): Video: h264 (avc1 / 0x31637661), yuv420p(tv, bt709, progressive), 480x272 [SAR 136:135 DAR 16:9], q=2-31, 1000 kb/s, 29.97 fps, 30k tbn (default)
    Metadata:
      handler_name    : ISO Media file produced by Google Inc.
      vendor_id       : [0][0][0][0]
      encoder         : Lavc58.119.100 libx264
    Side data:
      cpb: bitrate max/min/avg: 10000000/0/1000000 buffer size: 10000000 vbv_delay: N/A
    Stream #0:1(eng): Audio: aac (LC) (mp4a / 0x6134706D), 44100 Hz, stereo, fltp, 127 kb/s (default)
    Metadata:
      handler_name    : ISO Media file produced by Google Inc.
      vendor_id       : [0][0][0][0]
      encoder         : Lavc58.119.100 aac
frame=    1 fps=0.0 q=0.0 size=       0kB time=00:00:00.41 bitrate=   0.9kbits/s speed=13.5x    frame=  209 fps=0.0 q=14.0 size=     512kB time=00:00:06.98 bitrate= 600.2kbits/s speed=13.1x    frame=  425 fps=411 q=29.0 size=    2304kB time=00:00:14.41 bitrate=1309.0kbits/s speed=13.9x    frame=  643 fps=419 q=30.0 size=    3072kB time=00:00:21.40 bitrate=1175.5kbits/s speed=13.9x    frame=  859 fps=422 q=29.0 size=    3840kB time=00:00:28.81 bitrate=1091.7kbits/s speed=14.1x    frame= 1071 fps=422 q=30.0 size=    5120kB time=00:00:35.78 bitrate=1172.2kbits/s speed=14.1x    frame= 1284 fps=423 q=30.0 size=    5888kB time=00:00:42.95 bitrate=1122.9kbits/s speed=14.1x    frame= 1498 fps=423 q=29.0 size=    6912kB time=00:00:50.17 bitrate=1128.4kbits/s speed=14.2x    frame= 1715 fps=424 q=28.0 size=    7680kB time=00:00:57.14 bitrate=1101.0kbits/s speed=14.1x    frame= 1927 fps=424 q=28.0 size=    8448kB time=00:01:04.57 bitrate=1071.7kbits/s speed=14.2x    frame= 2142 fps=425 q=27.0 size=    9216kB time=00:01:11.54 bitrate=1055.3kbits/s speed=14.2x    frame= 2356 fps=425 q=28.0 size=   10240kB time=00:01:18.52 bitrate=1068.2kbits/s speed=14.2x    frame= 2570 fps=425 q=29.0 size=   11776kB time=00:01:25.93 bitrate=1122.6kbits/s speed=14.2x    frame= 2786 fps=426 q=30.0 size=   12800kB time=00:01:32.90 bitrate=1128.7kbits/s speed=14.2x    frame= 2996 fps=425 q=31.0 size=   14080kB time=00:01:40.33 bitrate=1149.6kbits/s speed=14.2x    frame= 3206 fps=425 q=30.0 size=   14848kB time=00:01:47.29 bitrate=1133.6kbits/s speed=14.2x    frame= 3271 fps=424 q=-1.0 Lsize=   15434kB time=00:01:49.13 bitrate=1158.5kbits/s speed=14.2x    
video:13705kB audio:1637kB subtitle:0kB other streams:0kB global headers:0kB muxing overhead: 0.597939%
[libx264 @ 0x5de9e00] frame I:22    Avg QP:22.83  size:  9330
[libx264 @ 0x5de9e00] frame P:3249  Avg QP:25.70  size:  4256
[libx264 @ 0x5de9e00] mb I  I16..4: 27.0%  0.0% 73.0%
[libx264 @ 0x5de9e00] mb P  I16..4: 12.3%  0.0%  0.0%  P16..4: 72.0%  0.0%  0.0%  0.0%  0.0%    skip:15.7%
[libx264 @ 0x5de9e00] final ratefactor: 22.30
[libx264 @ 0x5de9e00] coded y,uvDC,uvAC intra: 51.8% 0.1% 0.1% inter: 41.9% 0.2% 0.2%
[libx264 @ 0x5de9e00] i16 v,h,dc,p: 40% 27% 16% 17%
[libx264 @ 0x5de9e00] i4 v,h,dc,ddl,ddr,vr,hd,vl,hu: 24% 26% 11%  6%  6%  6%  9%  4%  8%
[libx264 @ 0x5de9e00] i8c dc,h,v,p: 100%  0%  0%  0%
[libx264 @ 0x5de9e00] kb/s:1028.59
[aac @ 0x5e29780] Qavg: 2702.173
